REM MD5 91f5b1a2139636a5001d39a55ae436c4
FILE "Running High (Japan) (Demo).bin" BINARY
  TRACK 01 MODE2/2352
    INDEX 01 00:00:00
  TRACK 02 AUDIO
    INDEX 00 05:58:35
    INDEX 01 06:00:35
  TRACK 03 AUDIO
    INDEX 00 10:36:38
    INDEX 01 10:38:38
  TRACK 04 AUDIO
    INDEX 00 15:27:54
    INDEX 01 15:29:54
REM LEADOUT 17:26:31
